<svg xmlns="http://www.w3.org/2000/svg" xmlns:xlink="http://www.w3.org/1999/xlink" width="390" height="471" viewBox="0 0 390 471">
    <defs>
        <path id="a" d="M458.801 71.277c58.107 47.36 108.204 115.637 97.054 177.57-11.15 62.07-83.39 117.796-174.948 165.967-91.557 48.171-202.431 88.786-275.771 59.505C31.796 445.04-4.011 346 .858 266.793c4.711-79.205 49.94-138.575 101.294-184.587C153.349 36.194 210.67 3.406 272.546.437 334.264-2.666 400.537 23.78 458.8 71.277z"/>
    </defs>
    <g fill="none" fill-rule="evenodd" transform="scale(-1 1) rotate(-32 -93.581 1126.386)">
        <mask id="b" fill="#fff">
            <use xlink:href="#a"/>
        </mask>
        <use fill="#3C4EBF" fill-rule="nonzero" xlink:href="#a"/>
        <ellipse cx="400.4" cy="287.442" stroke="#36F4D0" stroke-width="1.5" mask="url(#b)" opacity=".449" rx="241.5" ry="289"/>
        <ellipse cx="266.647" cy="484.508" stroke="#36F4D0" stroke-width="1.5" mask="url(#b)" opacity=".449" rx="241.5" ry="289"/>
        <ellipse cx="347.768" cy="817.022" stroke="#1BDFBA" stroke-width="1.5" mask="url(#b)" rx="262.5" ry="263"/>
        <circle cx="320.199" cy="724.328" r="176" stroke="#1BDFBA" stroke-width="1.5" mask="url(#b)"/>
    </g>
</svg>
