<?xml version="1.0" encoding="UTF-8"?>
<svg width="18px" height="24px" viewBox="0 0 18 24" version="1.1" xmlns="http://www.w3.org/2000/svg" xmlns:xlink="http://www.w3.org/1999/xlink">
    <!-- Generator: Sketch 56.3 (81716) - https://sketch.com -->
    <title>android</title>
    <desc>Created with Sketch.</desc>
    <g id="Style-Guide" stroke="none" stroke-width="1" fill="none" fill-rule="evenodd">
        <g transform="translate(-135.000000, -1676.000000)" fill="#FFFFFF" fill-rule="nonzero" id="Buttons">
            <g transform="translate(81.000000, 1428.000000)">
                <g id="Android-Apple-Toggle-1" transform="translate(0.000000, 239.000000)">
                    <g id="Toggle-on">
                        <g id="android" transform="translate(54.000000, 9.000000)">
                            <path d="M12.281,2.98 L13.416,1.277 C13.569,1.048 13.507,0.737 13.277,0.584 C13.046,0.431 12.736,0.492 12.584,0.723 L11.398,2.502 C10.663,2.181 9.853,2 9,2 C8.147,2 7.337,2.181 6.602,2.502 L5.416,0.723 C5.263,0.493 4.953,0.431 4.723,0.584 C4.493,0.737 4.431,1.048 4.584,1.277 L5.719,2.98 C4.083,4.052 3,5.898 3,8 L15,8 C15,5.898 13.917,4.052 12.281,2.98 Z" id="Path"></path>
                            <path d="M3,19 C3,19.552 3.448,20 4,20 L5,20 L5,23 C5,23.552 5.448,24 6,24 C6.552,24 7,23.552 7,23 L7,20 L11,20 L11,23 C11,23.552 11.448,24 12,24 C12.552,24 13,23.552 13,23 L13,20 L14,20 C14.552,20 15,19.552 15,19 L15,9 L3,9 L3,19 Z" id="Path"></path>
                            <path d="M1,9 C0.448,9 0,9.448 0,10 L0,15 C0,15.552 0.448,16 1,16 C1.552,16 2,15.552 2,15 L2,10 C2,9.448 1.552,9 1,9 Z" id="Path"></path>
                            <path d="M17,9 C16.448,9 16,9.448 16,10 L16,15 C16,15.552 16.448,16 17,16 C17.552,16 18,15.552 18,15 L18,10 C18,9.448 17.552,9 17,9 Z" id="Path"></path>
                        </g>
                    </g>
                </g>
            </g>
        </g>
    </g>
</svg>