<?xml version="1.0" encoding="UTF-8"?>
<svg width="21px" height="24px" viewBox="0 0 21 24" version="1.1" xmlns="http://www.w3.org/2000/svg" xmlns:xlink="http://www.w3.org/1999/xlink">
    <!-- Generator: Sketch 56.3 (81716) - https://sketch.com -->
    <title>apple</title>
    <desc>Created with Sketch.</desc>
    <g id="Style-Guide" stroke="none" stroke-width="1" fill="none" fill-rule="evenodd">
        <g transform="translate(-92.000000, -1675.000000)" fill="#BDBDBD" fill-rule="nonzero" id="Buttons">
            <g transform="translate(81.000000, 1428.000000)">
                <g id="Android-Apple-Toggle-1" transform="translate(0.000000, 239.000000)">
                    <g id="Toggle-on">
                        <g id="apple" transform="translate(10.000000, 8.000000)">
                            <path d="M20.354,16.487 C19.016,15.981 18.121,14.766 18.02,13.317 C17.921,11.905 18.613,10.651 19.871,9.962 L20.917,9.389 L20.17,8.459 C18.915,6.896 17.119,5.962 15.366,5.962 C14.151,5.962 13.308,6.28 12.631,6.536 C12.153,6.717 11.776,6.859 11.362,6.859 C10.89,6.859 10.424,6.693 9.884,6.501 C9.176,6.249 8.374,5.963 7.344,5.963 C5.354,5.963 3.347,7.151 2.107,9.061 C0.256,11.91 0.764,16.795 3.315,20.677 C4.326,22.215 5.743,23.982 7.75,24 C7.763,24 7.776,24 7.789,24 C9.432,24 9.792,23.124 11.387,23.114 C13.129,23.196 13.349,24.007 14.976,23.996 C16.937,23.978 18.351,22.225 19.475,20.512 C20.139,19.505 20.396,18.978 20.913,17.834 L21.351,16.864 L20.354,16.487 Z" id="Path"></path>
                            <path d="M14.1,3.45 C14.75,2.616 15.243,1.439 15.064,0.236 C14.002,0.309 12.762,0.984 12.037,1.864 C11.379,2.663 10.836,3.847 11.047,4.999 C12.205,5.035 13.404,4.343 14.1,3.45 L14.1,3.45 Z" id="Path"></path>
                        </g>
                    </g>
                </g>
            </g>
        </g>
    </g>
</svg>